<?xml version="1.0" encoding="UTF-8" standalone="no"?>
<svg width="60px" height="60px" viewBox="0 0 60 60" version="1.1" xmlns="http://www.w3.org/2000/svg" xmlns:xlink="http://www.w3.org/1999/xlink" xmlns:sketch="http://www.bohemiancoding.com/sketch/ns">
    <title>Android</title>
    <description>Created with Sketch (http://www.bohemiancoding.com/sketch)</description>
    <defs></defs>
    <g id="Page-1" stroke="none" stroke-width="1" fill="none" fill-rule="evenodd" sketch:type="MSPage">
        <g id="Android" sketch:type="MSArtboardGroup">
            <g sketch:type="MSLayerGroup">
                <path d="M0.786032408,30 C0.786032408,13.4314567 14.0163927,0 30.336871,0 C46.6573494,0 59.8877097,13.4314567 59.8877097,30 C59.8877097,46.5685433 46.6573494,60 30.336871,60 C14.0163927,60 0.786032408,46.5685433 0.786032408,30 Z M0.786032408,30" fill="#A4C639" sketch:type="MSShapeGroup"></path>
                <path d="M20.9478543,23.4371561 C20.9478543,20.2103361 22.7309918,17.3814452 25.407199,15.8009181 L23.9237686,13.0308444 C23.7441957,12.695526 23.8612179,12.2730432 24.1851728,12.0871713 C24.5091277,11.9012995 24.917293,12.0224266 25.0968659,12.357745 L26.6177286,15.1977176 C27.7581534,14.7271559 29.0156294,14.4664135 30.3368462,14.4664135 C31.6580599,14.4664135 32.9155345,14.7271563 34.055947,15.1977106 L35.5768266,12.357745 C35.7563995,12.0224266 36.1645648,11.9012995 36.4884701,12.0871713 C36.8124746,12.2730432 36.9294968,12.695526 36.7499239,13.0308444 L35.2664762,15.8009128 C36.5374351,16.5514953 37.6070065,17.5836935 38.3797568,18.8063111 C38.3902256,18.8228751 38.4005015,18.839252 38.4106095,18.8554782 C39.2460125,20.1964847 39.7258382,21.7632818 39.7258382,23.4371561 C39.7258382,23.4604118 39.7257456,23.4836468 39.7255608,23.5068583 C39.7257455,23.5192058 39.7258382,23.5315765 39.7258382,23.5439696 L39.7258382,23.6262601 L20.9478543,23.6262601 L20.9478543,23.5439183 C20.9478543,23.5315315 20.9479469,23.5191671 20.9481315,23.5068258 C20.9479468,23.4836251 20.9478543,23.4604009 20.9478543,23.4371561 Z M39.7258382,38.2816657 C39.7258382,39.5792289 38.7095636,40.631152 37.4559731,40.631152 L36.320991,40.631152 L36.320991,45.4368867 C36.320991,46.8524476 35.2123773,48 33.844788,48 C32.4771988,48 31.3685851,46.8524476 31.3685851,45.4368867 L31.3685851,40.631152 L29.3050578,40.631152 L29.3050578,45.4368867 C29.3050578,46.8524476 28.1963946,48 26.8288549,48 C25.4613152,48 24.3526519,46.8524476 24.3526519,45.4368867 L24.3526519,40.631152 L23.2177194,40.631152 C21.9641289,40.631152 20.9478543,39.5792289 20.9478543,38.2816657 L20.9478543,23.9956439 L39.7258382,23.9956439 L39.7258382,38.2816657 Z M20.5351786,26.0002181 L20.5351786,35.0777228 C20.5351786,36.4932836 19.4265649,37.6407847 18.0589756,37.6407847 C16.6913864,37.6407847 15.5827727,36.4932836 15.5827727,35.0777228 L15.5827727,26.0002181 C15.5827727,24.5847085 16.6913864,23.4371561 18.0589756,23.4371561 C19.4265153,23.4371561 20.5351786,24.5847085 20.5351786,26.0002181 Z M26.4161296,19.0585727 C26.4161296,18.8226635 26.2313684,18.6314213 26.0034539,18.6314213 C25.7755394,18.6314213 25.5907782,18.8226635 25.5907782,19.0585727 C25.5907782,19.2944818 25.7755394,19.485724 26.0034539,19.485724 C26.2313684,19.485724 26.4161296,19.2944818 26.4161296,19.0585727 Z M45.0909694,26.0002181 L45.0909694,35.0777228 C45.0909694,36.4932836 43.9823061,37.6407847 42.6147169,37.6407847 C41.2471772,37.6407847 40.1385139,36.4932836 40.1385139,35.0777228 L40.1385139,26.0002181 C40.1385139,24.5847085 41.2471772,23.4371561 42.6147169,23.4371561 C43.9823061,23.4371561 45.0909694,24.5847085 45.0909694,26.0002181 Z M35.0829143,19.0585727 C35.0829143,18.8226635 34.8981531,18.6314213 34.6702386,18.6314213 C34.4423241,18.6314213 34.2575629,18.8226635 34.2575629,19.0585727 C34.2575629,19.2944818 34.4423241,19.485724 34.6702386,19.485724 C34.8981531,19.485724 35.0829143,19.2944818 35.0829143,19.0585727 Z M35.0829143,19.0585727" id="Oval" fill="#FFFFFF" sketch:type="MSShapeGroup"></path>
                <path d="M59.8877097,30 C59.8877097,46.5685433 46.6573494,60 30.336871,60 C24.2839922,60 18.6561568,58.1525134 13.9707761,54.9827754 L47.8309975,5.81941103 C55.1428955,11.2806503 59.8877097,20.0777973 59.8877097,30 Z M59.8877097,30" id="reflec" fill-opacity="0.08" fill="#000000" sketch:type="MSShapeGroup"></path>
            </g>
        </g>
    </g>
</svg>