<?xml version="1.0" encoding="utf-8"?>
<!-- Generator: Adobe Illustrator 15.0.0, SVG Export Plug-In . SVG Version: 6.00 Build 0)  -->
<!DOCTYPE svg PUBLIC "-//W3C//DTD SVG 1.1//EN" "http://www.w3.org/Graphics/SVG/1.1/DTD/svg11.dtd">
<svg version="1.1" xmlns="http://www.w3.org/2000/svg" xmlns:xlink="http://www.w3.org/1999/xlink" x="0px" y="0px" width="596px"
	 height="595.281px" viewBox="123.445 0 596 595.281" enable-background="new 123.445 0 596 595.281" xml:space="preserve">
<g id="Layer_2">
	<circle fill="#F63E28" cx="420.944" cy="296.781" r="294.5"/>
</g>
<g id="Icon">
	<g>
		<path fill="#FFFFFF" d="M435.603,325.237c-6.896-2.964-13.741-4.601-20.562-4.898c-4.75-0.149-12.786-0.596-24.121-1.327
			c-11.348-0.744-20.265-1.19-26.788-1.327c-6.077-0.148-11.968-0.372-17.672-0.682c-5.705-0.285-10.716-1.029-15.007-2.22
			c-4.452-1.042-8.234-3.002-11.347-5.903c-3.113-2.878-4.663-7.069-4.663-12.563c0-5.332,1.848-9.562,5.556-12.662
			s7.255-5.258,10.665-6.449h26.899c20.748,0,38.941-6.672,54.58-20.004c15.638-13.344,23.451-29.64,23.451-48.912
			c0-7.403-1.327-14.969-3.993-22.683c-2.666-7.701-6.747-14.745-12.229-21.12v-1.326h51.579v-21.344h-76.481
			c-6.82-2.071-13.53-3.782-20.128-5.109s-13.232-2.009-19.892-2.009c-24.159,0-43.989,6.672-59.467,20.016
			c-15.489,13.345-23.24,30.385-23.24,51.133c0,13.79,3.919,25.906,11.781,36.349c7.851,10.455,18.888,19.012,33.125,25.685v3.336
			c-11.261,4.737-19.669,10.417-25.237,17.003c-5.556,6.598-8.334,13.815-8.334,21.678c0,6.226,1.19,11.447,3.56,15.676
			c2.368,4.229,5.481,7.899,9.338,11.013c3.411,2.666,7.479,4.998,12.229,6.994c4.737,1.997,9.339,3.671,13.778,4.998v3.113
			c-18.379,0.756-33.497,5.481-45.353,14.225c-11.856,8.743-17.784,20.674-17.784,35.804c0,18.677,8.234,32.852,24.679,42.574
			c16.445,9.724,41.273,14.572,74.473,14.572c20.301,0,37.354-1.935,51.144-5.791c13.791-3.857,25.635-9.265,35.568-16.234
			c9.339-6.82,16.296-14.857,20.909-24.121c4.589-9.264,6.896-19.148,6.896-29.677c0-10.529-1.712-19.347-5.109-26.466
			c-3.41-7.105-8.086-13.48-14.014-19.123C448.761,332.281,442.498,328.201,435.603,325.237z M384.025,246.425
			c-6.896,10.306-16.718,15.452-29.454,15.452c-11.409,0-20.711-5.184-27.903-15.564c-7.193-10.367-10.777-23.786-10.777-40.243
			c0-7.255,0.632-14.336,1.885-21.231s3.361-12.786,6.337-17.673c3.113-5.332,7.156-9.449,12.117-12.339
			c4.96-2.89,10.926-4.341,17.896-4.341c12.736,0,22.633,5.159,29.677,15.452c7.032,10.306,10.566,24.121,10.566,41.459
			C394.367,223.109,390.92,236.119,384.025,246.425z M418.265,429.399c-12.525,8.383-29.689,12.562-51.467,12.562
			c-12.6,0-23.265-1.228-32.021-3.658c-8.743-2.443-15.713-5.594-20.896-9.463c-5.482-3.993-9.339-8.371-11.559-13.121
			c-2.22-4.737-3.336-9.698-3.336-14.895c0-11.558,3.373-20.995,10.119-28.337c6.734-7.342,18.119-12.576,34.13-15.688
			c17.04,0,32.021,0.372,44.906,1.116c12.897,0.756,21.417,1.414,25.572,1.996c7.85,1.923,13.704,5.557,17.573,10.901
			c3.856,5.345,5.779,12.142,5.779,20.45C437.041,408.303,430.791,421.028,418.265,429.399z"/>
		<path fill="#FFFFFF" d="M521.807,207.222v43.468h16.966v-43.468h43.269v-16.68h-43.269v-43.567h-16.966v43.567h-43.27v16.68
			H521.807z"/>
	</g>
</g>
</svg>
