<?xml version="1.0" encoding="utf-8"?>
<!-- Generator: Adobe Illustrator 15.0.0, SVG Export Plug-In . SVG Version: 6.00 Build 0)  -->
<!DOCTYPE svg PUBLIC "-//W3C//DTD SVG 1.1//EN" "http://www.w3.org/Graphics/SVG/1.1/DTD/svg11.dtd">
<svg version="1.1" xmlns="http://www.w3.org/2000/svg" xmlns:xlink="http://www.w3.org/1999/xlink" x="0px" y="0px" width="596px"
	 height="595.281px" viewBox="123.445 0 596 595.281" enable-background="new 123.445 0 596 595.281" xml:space="preserve">
<g id="Layer_2">
	<circle fill="#2DAAE1" cx="420.944" cy="296.781" r="294.5"/>
</g>
<g id="Icon">
	<path fill="#FFFFFF" d="M609.773,179.634c-13.891,6.164-28.811,10.331-44.498,12.204c16.01-9.587,28.275-24.779,34.066-42.86
		c-14.955,8.879-31.537,15.328-49.209,18.801c-14.125-15.056-34.266-24.456-56.551-24.456c-42.773,0-77.461,34.675-77.461,77.473
		c0,6.064,0.682,11.98,1.996,17.66c-64.389-3.236-121.474-34.079-159.684-80.945c-6.672,11.446-10.491,24.754-10.491,38.953
		c0,26.875,13.679,50.587,34.464,64.477c-12.699-0.396-24.643-3.882-35.097-9.686c0,0.322,0,0.645,0,0.979
		c0,37.54,26.701,68.842,62.145,75.961c-6.511,1.785-13.344,2.716-20.413,2.716c-4.998,0-9.847-0.472-14.584-1.364
		c9.859,30.769,38.47,53.166,72.363,53.799c-26.515,20.785-59.925,33.174-96.212,33.174c-6.25,0-12.427-0.372-18.491-1.104
		c34.291,21.988,75.006,34.824,118.759,34.824c142.496,0,220.427-118.052,220.427-220.428c0-3.361-0.074-6.697-0.236-10.021
		C586.245,208.815,599.392,195.174,609.773,179.634z"/>
</g>
</svg>
