<?xml version="1.0" encoding="utf-8"?>
<!-- Generator: Adobe Illustrator 15.0.0, SVG Export Plug-In . SVG Version: 6.00 Build 0)  -->
<!DOCTYPE svg PUBLIC "-//W3C//DTD SVG 1.1//EN" "http://www.w3.org/Graphics/SVG/1.1/DTD/svg11.dtd">
<svg version="1.1" xmlns="http://www.w3.org/2000/svg" xmlns:xlink="http://www.w3.org/1999/xlink" x="0px" y="0px" width="596px"
	 height="595.281px" viewBox="123.445 0 596 595.281" enable-background="new 123.445 0 596 595.281" xml:space="preserve">
<g id="Layer_2">
	<circle fill="#0173B2" cx="420.944" cy="295.5" r="294.5"/>
</g>
<g id="Icon">
	<g>
		<g>
			<path fill="#FFFFFF" d="M302.532,147.144c-19.942,0-32.964,13.432-32.555,31.34c-0.409,17.089,12.625,30.93,32.157,30.93
				c20.352,0,33.373-13.841,33.373-30.93C335.099,160.576,322.474,147.144,302.532,147.144z M271.603,443.842h61.859V232.406
				h-61.859V443.842z M500.723,235.383c-19.78,0-39.958-4.08-61.463,29.268h-1.228l-1.079-32.231h-54.777
				c0.806,17.499,0.917,43.629,0.917,68.456v142.98h61.859V321.648c0-5.705,0.807-11.396,2.431-15.477
				c4.068-11.398,14.25-23.204,31.34-23.204c22.385,0,31.339,17.499,31.339,43.146v117.742h61.859V318.361
				C571.946,259.752,541.412,235.383,500.723,235.383z"/>
		</g>
	</g>
</g>
</svg>
